# xmcd
#
# Track frame offsets:
#	150
#	15822
#	26200
#	39297
#	53830
#	66884
#	75834
#	84800
#	100063
#	113046
#	129550
#	146805
#
# Disc length: 2112 seconds
# Revision: 0
# Processed by: cddbd v1.5.2PL0 Copyright (c) Steve Scherf et al.
# Submitted via: dBpowerAMP V12.0
#
DISCID=87083e0c
DTITLE=Grasstowne - Kickin' Up Dust
DYEAR=2011
DGENRE=Country
TTITLE0=Blue Rocking Chair
TTITLE1=Up in the Wheelhouse
TTITLE2=I Don't Worry About You Anymore
TTITLE3=Kickin' Up Dust
TTITLE4=Old Time Way
TTITLE5=Run
TTITLE6=Our Father
TTITLE7=Somewhere Between Givin' In and Givin' Up
TTITLE8=Grass Stain
TTITLE9=Anchor in the Storm
TTITLE10=Vicksburg
TTITLE11=Waves of Sorrow
EXTD=
EXTT0=
EXTT1=
EXTT2=
EXTT3=
EXTT4=
EXTT5=
EXTT6=
EXTT7=
EXTT8=
EXTT9=
EXTT10=
EXTT11=
PLAYORDER=
